<svg width="80" height="24" viewBox="0 0 80 24" fill="none" xmlns="http://www.w3.org/2000/svg">
<path d="M2.6865 17.375L8.8255 20.9195C9.1405 21.0725 9.5455 21.148 9.8485 20.9675L15.6585 17.619C15.9675 17.4405 16.083 17.1205 16.083 16.824V11.162" stroke="url(#paint0_linear_10_24)" stroke-width="0.5" stroke-linecap="round" stroke-linejoin="round"/>
<path d="M11.9955 22.75L18.135 19.2055C18.425 19.0095 18.693 18.697 18.688 18.344L18.693 11.6375C18.693 11.2805 18.4735 11.021 18.217 10.8725L13.3135 8.042" stroke="url(#paint1_linear_10_24)" stroke-width="0.5" stroke-linecap="round" stroke-linejoin="round"/>
<path d="M2.6865 6.62499L2.6865 13.714C2.7115 14.063 2.848 14.4515 3.1565 14.6235L8.9615 17.981C9.27 18.1595 9.605 18.099 9.8615 17.951L14.765 15.12" stroke="url(#paint2_linear_10_24)" stroke-width="0.5" stroke-linecap="round" stroke-linejoin="round"/>
<path d="M11.9955 1.25001L5.8565 4.79451C5.5665 4.99051 5.299 5.30301 5.304 5.65601L5.299 12.3625C5.299 12.719 5.5185 12.979 5.775 13.1275L10.678 15.958" stroke="url(#paint3_linear_10_24)" stroke-width="0.5" stroke-linecap="round" stroke-linejoin="round"/>
<path d="M21.3135 6.64149L15.1745 3.09699C14.86 2.94399 14.4555 2.86849 14.152 3.04899L8.342 6.39749C8.0325 6.57599 7.9175 6.89599 7.9175 7.19249L7.9175 12.8545" stroke="url(#paint4_linear_10_24)" stroke-width="0.5" stroke-linecap="round" stroke-linejoin="round"/>
<path d="M21.305 17.375V10.286C21.28 9.937 21.143 9.5485 20.835 9.376L15.03 6.019C14.721 5.8405 14.386 5.901 14.13 6.049L9.2265 8.88" stroke="url(#paint5_linear_10_24)" stroke-width="0.5" stroke-linecap="round" stroke-linejoin="round"/>
<path d="M27.912 16V7.6H28.92V16H27.912ZM30.6642 16V9.844H31.5762L31.6362 10.876C31.8202 10.508 32.0882 10.22 32.4402 10.012C32.7922 9.804 33.1962 9.7 33.6522 9.7C34.1242 9.7 34.5322 9.792 34.8762 9.976C35.2202 10.16 35.4882 10.44 35.6802 10.816C35.8722 11.184 35.9682 11.652 35.9682 12.22V16H34.9602V12.328C34.9602 11.744 34.8242 11.304 34.5522 11.008C34.2802 10.712 33.9042 10.564 33.4242 10.564C33.1042 10.564 32.8082 10.644 32.5362 10.804C32.2722 10.964 32.0602 11.196 31.9002 11.5C31.7482 11.796 31.6722 12.164 31.6722 12.604V16H30.6642ZM39.8466 16.144C39.3186 16.144 38.8666 16.06 38.4906 15.892C38.1226 15.724 37.8346 15.488 37.6266 15.184C37.4186 14.88 37.2906 14.524 37.2426 14.116H38.2746C38.3146 14.324 38.3946 14.52 38.5146 14.704C38.6426 14.88 38.8146 15.024 39.0306 15.136C39.2546 15.24 39.5306 15.292 39.8586 15.292C40.1386 15.292 40.3706 15.252 40.5546 15.172C40.7466 15.084 40.8866 14.968 40.9746 14.824C41.0706 14.672 41.1186 14.508 41.1186 14.332C41.1186 14.076 41.0586 13.88 40.9386 13.744C40.8266 13.608 40.6586 13.504 40.4346 13.432C40.2186 13.352 39.9506 13.288 39.6306 13.24C39.3266 13.192 39.0426 13.128 38.7786 13.048C38.5226 12.96 38.2946 12.848 38.0946 12.712C37.9026 12.576 37.7506 12.408 37.6386 12.208C37.5346 12 37.4826 11.752 37.4826 11.464C37.4826 11.12 37.5706 10.816 37.7466 10.552C37.9306 10.288 38.1866 10.08 38.5146 9.928C38.8506 9.776 39.2466 9.7 39.7026 9.7C40.3586 9.7 40.8866 9.856 41.2866 10.168C41.6866 10.48 41.9226 10.928 41.9946 11.512H40.9986C40.9586 11.216 40.8226 10.984 40.5906 10.816C40.3666 10.64 40.0666 10.552 39.6906 10.552C39.2986 10.552 39.0026 10.628 38.8026 10.78C38.6026 10.932 38.5026 11.132 38.5026 11.38C38.5026 11.556 38.5506 11.712 38.6466 11.848C38.7506 11.976 38.9106 12.088 39.1266 12.184C39.3506 12.272 39.6306 12.344 39.9666 12.4C40.3906 12.464 40.7666 12.556 41.0946 12.676C41.4226 12.796 41.6826 12.98 41.8746 13.228C42.0666 13.468 42.1586 13.808 42.1506 14.248C42.1586 14.632 42.0666 14.968 41.8746 15.256C41.6826 15.544 41.4146 15.764 41.0706 15.916C40.7266 16.068 40.3186 16.144 39.8466 16.144ZM43.6252 18.64V9.844H44.5372L44.6332 10.828C44.7612 10.628 44.9212 10.444 45.1132 10.276C45.3132 10.108 45.5532 9.972 45.8332 9.868C46.1132 9.756 46.4332 9.7 46.7932 9.7C47.3692 9.7 47.8732 9.844 48.3052 10.132C48.7372 10.412 49.0732 10.796 49.3132 11.284C49.5612 11.764 49.6852 12.316 49.6852 12.94C49.6852 13.556 49.5612 14.108 49.3132 14.596C49.0732 15.076 48.7332 15.456 48.2932 15.736C47.8612 16.008 47.3572 16.144 46.7812 16.144C46.2932 16.144 45.8612 16.044 45.4852 15.844C45.1172 15.644 44.8332 15.364 44.6332 15.004V18.64H43.6252ZM46.6612 15.268C47.0532 15.268 47.3972 15.172 47.6932 14.98C47.9892 14.788 48.2212 14.516 48.3892 14.164C48.5652 13.812 48.6532 13.4 48.6532 12.928C48.6532 12.448 48.5652 12.036 48.3892 11.692C48.2212 11.34 47.9892 11.068 47.6932 10.876C47.3972 10.676 47.0532 10.576 46.6612 10.576C46.2612 10.576 45.9092 10.676 45.6052 10.876C45.3092 11.068 45.0772 11.34 44.9092 11.692C44.7492 12.036 44.6692 12.448 44.6692 12.928C44.6692 13.4 44.7492 13.812 44.9092 14.164C45.0772 14.516 45.3092 14.788 45.6052 14.98C45.9092 15.172 46.2612 15.268 46.6612 15.268ZM53.7652 16.144C53.2052 16.144 52.7052 16.012 52.2652 15.748C51.8332 15.476 51.4932 15.1 51.2452 14.62C50.9972 14.132 50.8732 13.568 50.8732 12.928C50.8732 12.28 50.9972 11.716 51.2452 11.236C51.4932 10.748 51.8332 10.372 52.2652 10.108C52.7052 9.836 53.2132 9.7 53.7892 9.7C54.3892 9.7 54.8932 9.836 55.3012 10.108C55.7172 10.372 56.0332 10.724 56.2492 11.164C56.4652 11.604 56.5732 12.084 56.5732 12.604C56.5732 12.684 56.5732 12.768 56.5732 12.856C56.5732 12.944 56.5692 13.044 56.5612 13.156H51.6292V12.376H55.5772C55.5612 11.792 55.3812 11.344 55.0372 11.032C54.7012 10.712 54.2772 10.552 53.7652 10.552C53.4292 10.552 53.1172 10.632 52.8292 10.792C52.5412 10.952 52.3052 11.188 52.1212 11.5C51.9452 11.804 51.8572 12.188 51.8572 12.652V12.988C51.8572 13.492 51.9452 13.916 52.1212 14.26C52.3052 14.604 52.5412 14.864 52.8292 15.04C53.1172 15.208 53.4292 15.292 53.7652 15.292C54.2052 15.292 54.5572 15.204 54.8212 15.028C55.0852 14.844 55.2812 14.588 55.4092 14.26H56.4052C56.3012 14.62 56.1292 14.944 55.8892 15.232C55.6572 15.512 55.3612 15.736 55.0012 15.904C54.6492 16.064 54.2372 16.144 53.7652 16.144ZM60.6698 16.144C60.0938 16.144 59.5778 16.012 59.1218 15.748C58.6738 15.476 58.3218 15.1 58.0658 14.62C57.8098 14.132 57.6818 13.568 57.6818 12.928C57.6818 12.28 57.8098 11.716 58.0658 11.236C58.3218 10.756 58.6738 10.38 59.1218 10.108C59.5778 9.836 60.0938 9.7 60.6698 9.7C61.3818 9.7 61.9778 9.892 62.4578 10.276C62.9458 10.652 63.2538 11.156 63.3818 11.788H62.3498C62.2698 11.404 62.0698 11.104 61.7498 10.888C61.4378 10.672 61.0738 10.564 60.6578 10.564C60.2978 10.564 59.9698 10.656 59.6738 10.84C59.3858 11.016 59.1538 11.28 58.9778 11.632C58.8018 11.976 58.7138 12.408 58.7138 12.928C58.7138 13.312 58.7618 13.652 58.8577 13.948C58.9618 14.244 59.1018 14.492 59.2778 14.692C59.4538 14.892 59.6578 15.044 59.8898 15.148C60.1298 15.244 60.3858 15.292 60.6578 15.292C60.9378 15.292 61.1938 15.244 61.4258 15.148C61.6658 15.052 61.8658 14.912 62.0258 14.728C62.1858 14.544 62.2938 14.324 62.3498 14.068H63.3818C63.2538 14.684 62.9458 15.184 62.4578 15.568C61.9778 15.952 61.3818 16.144 60.6698 16.144ZM67.0723 16C66.7123 16 66.4003 15.944 66.1363 15.832C65.8723 15.72 65.6683 15.532 65.5243 15.268C65.3883 14.996 65.3203 14.632 65.3203 14.176V10.696H64.2403V9.844H65.3203L65.4523 8.344H66.3283V9.844H68.0923V10.696H66.3283V14.176C66.3283 14.552 66.4043 14.808 66.5563 14.944C66.7083 15.072 66.9763 15.136 67.3603 15.136H68.0323V16H67.0723ZM69.4298 16V9.844H70.3418L70.4258 10.996C70.5618 10.716 70.7378 10.48 70.9538 10.288C71.1778 10.096 71.4458 9.952 71.7578 9.856C72.0698 9.752 72.4218 9.7 72.8138 9.7V10.756H72.3458C72.0978 10.756 71.8578 10.792 71.6258 10.864C71.4018 10.928 71.1978 11.036 71.0138 11.188C70.8378 11.332 70.6978 11.532 70.5938 11.788C70.4898 12.044 70.4378 12.364 70.4378 12.748V16H69.4298ZM75.945 16.144C75.457 16.144 75.049 16.056 74.721 15.88C74.401 15.704 74.161 15.472 74.001 15.184C73.841 14.896 73.761 14.58 73.761 14.236C73.761 13.828 73.865 13.48 74.073 13.192C74.289 12.904 74.589 12.688 74.973 12.544C75.357 12.392 75.809 12.316 76.329 12.316H77.913C77.913 11.924 77.861 11.6 77.757 11.344C77.653 11.08 77.489 10.884 77.265 10.756C77.049 10.62 76.773 10.552 76.437 10.552C76.061 10.552 75.737 10.648 75.465 10.84C75.193 11.024 75.025 11.3 74.961 11.668H73.929C73.977 11.244 74.121 10.888 74.361 10.6C74.601 10.304 74.905 10.08 75.273 9.928C75.641 9.776 76.029 9.7 76.437 9.7C76.997 9.7 77.461 9.804 77.829 10.012C78.197 10.212 78.469 10.496 78.645 10.864C78.829 11.224 78.921 11.652 78.921 12.148V16H78.021L77.961 14.92C77.881 15.088 77.777 15.248 77.649 15.4C77.529 15.544 77.385 15.672 77.217 15.784C77.057 15.896 76.869 15.984 76.653 16.048C76.437 16.112 76.201 16.144 75.945 16.144ZM76.089 15.292C76.361 15.292 76.609 15.232 76.833 15.112C77.065 14.992 77.261 14.832 77.421 14.632C77.581 14.432 77.701 14.208 77.781 13.96C77.869 13.704 77.913 13.44 77.913 13.168V13.096H76.413C76.029 13.096 75.717 13.144 75.477 13.24C75.245 13.328 75.077 13.456 74.973 13.624C74.869 13.792 74.817 13.98 74.817 14.188C74.817 14.412 74.865 14.608 74.961 14.776C75.057 14.936 75.201 15.064 75.393 15.16C75.585 15.248 75.817 15.292 76.089 15.292Z" fill="url(#paint6_linear_10_24)"/>
<defs>
<linearGradient id="paint0_linear_10_24" x1="2.6865" y1="16.1174" x2="16.083" y2="16.1174" gradientUnits="userSpaceOnUse">
<stop offset="0.58" stop-color="#1DB2FF"/>
<stop offset="0.75" stop-color="#0D6EFC"/>
</linearGradient>
<linearGradient id="paint1_linear_10_24" x1="11.9955" y1="15.396" x2="18.693" y2="15.396" gradientUnits="userSpaceOnUse">
<stop offset="0.58" stop-color="#1DB2FF"/>
<stop offset="0.75" stop-color="#0D6EFC"/>
</linearGradient>
<linearGradient id="paint2_linear_10_24" x1="2.6865" y1="12.3579" x2="14.765" y2="12.3579" gradientUnits="userSpaceOnUse">
<stop offset="0.58" stop-color="#1DB2FF"/>
<stop offset="0.75" stop-color="#0D6EFC"/>
</linearGradient>
<linearGradient id="paint3_linear_10_24" x1="5.299" y1="8.60401" x2="11.9955" y2="8.60401" gradientUnits="userSpaceOnUse">
<stop offset="0.58" stop-color="#1DB2FF"/>
<stop offset="0.75" stop-color="#0D6EFC"/>
</linearGradient>
<linearGradient id="paint4_linear_10_24" x1="7.9175" y1="7.89913" x2="21.3135" y2="7.89913" gradientUnits="userSpaceOnUse">
<stop offset="0.58" stop-color="#1DB2FF"/>
<stop offset="0.75" stop-color="#0D6EFC"/>
</linearGradient>
<linearGradient id="paint5_linear_10_24" x1="9.2265" y1="11.6421" x2="21.305" y2="11.6421" gradientUnits="userSpaceOnUse">
<stop offset="0.58" stop-color="#1DB2FF"/>
<stop offset="0.75" stop-color="#0D6EFC"/>
</linearGradient>
<linearGradient id="paint6_linear_10_24" x1="27" y1="12" x2="80" y2="12" gradientUnits="userSpaceOnUse">
<stop stop-color="#1DB2FF"/>
<stop offset="1" stop-color="#0D6EFC"/>
</linearGradient>
</defs>
</svg>
